<?xml version="1.0" standalone="no"?>
<svg xmlns="http://www.w3.org/2000/svg" xmlns:xlink="http://www.w3.org/1999/xlink" width="542pt" height="705pt" viewBox="0.00 0.00 541.79 704.90">
<g id="graph0" class="graph" transform="translate(22.74927695788233,688.6618804256316) scale(0.9497990366374215)" data-name="G">

<polygon fill="#2e3e56" stroke="none" points="-4,4 -4,-700.9 537.79,-700.9 537.79,4 -4,4" style=""/>
<g id="clust1" class="cluster" data-name="clusterNFTMarketplace">

<path fill="#445773" stroke="#445773" d="M20,-204.9C20,-204.9 507.89,-204.9 507.89,-204.9 513.89,-204.9 519.89,-210.9 519.89,-216.9 519.89,-216.9 519.89,-539.9 519.89,-539.9 519.89,-545.9 513.89,-551.9 507.89,-551.9 507.89,-551.9 20,-551.9 20,-551.9 14,-551.9 8,-545.9 8,-539.9 8,-539.9 8,-216.9 8,-216.9 8,-210.9 14,-204.9 20,-204.9" style=""/>
<text text-anchor="middle" x="263.95" y="-535.3" font-family="Times,serif" font-size="14.00" fill="#f0f0f0" style="">NFTMarketplace</text>
</g>
<g id="clust2" class="cluster" data-name="clusterCounters.Counter">

<path fill="#3b4b63" stroke="#e8726d" stroke-dasharray="5,2" d="M419.29,-11.9C419.29,-11.9 513.79,-11.9 513.79,-11.9 519.79,-11.9 525.79,-17.9 525.79,-23.9 525.79,-23.9 525.79,-184.9 525.79,-184.9 525.79,-190.9 519.79,-196.9 513.79,-196.9 513.79,-196.9 419.29,-196.9 419.29,-196.9 413.29,-196.9 407.29,-190.9 407.29,-184.9 407.29,-184.9 407.29,-23.9 407.29,-23.9 407.29,-17.9 413.29,-11.9 419.29,-11.9" style=""/>
<text text-anchor="middle" x="466.54" y="-180.3" font-family="Times,serif" font-size="14.00" fill="#f0f0f0" style="">Counters.Counter</text>
</g>
<g id="clust3" class="cluster" data-name="cluster_01">

<polygon fill="#2e3e56" stroke="black" points="26.98,-559.9 26.98,-688.9 334.63,-688.9 334.63,-559.9 26.98,-559.9" style=""/>
<text text-anchor="middle" x="180.8" y="-672.3" font-family="Times,serif" font-size="14.00" style="">Legend</text>
</g>
<!-- NFTMarketplace.&lt;Constructor&gt; -->
<g id="node1" class="node" pointer-events="visible" data-name="NFTMarketplace.&lt;Constructor&gt;">

<ellipse fill="#ff9797" stroke="#ff9797" stroke-width="3" cx="299.63" cy="-500.9" rx="67.55" ry="18" style=""/>
<text text-anchor="middle" x="299.63" y="-496.7" font-family="Times,serif" font-size="14.00" style="">&lt;Constructor&gt;</text>
</g>
<!-- NFTMarketplace.payable -->
<g id="node11" class="node" pointer-events="visible" data-name="NFTMarketplace.payable">

<ellipse fill="#edad56" stroke="#edad56" stroke-width="3" cx="466.54" cy="-284.9" rx="41.13" ry="18" style=""/>
<text text-anchor="middle" x="466.54" y="-280.7" font-family="Times,serif" font-size="14.00" style="">payable</text>
</g>
<!-- NFTMarketplace.&lt;Constructor&gt;&#45;&gt;NFTMarketplace.payable -->
<g id="edge1" class="edge" data-name="NFTMarketplace.&lt;Constructor&gt;-&gt;NFTMarketplace.payable">

<path fill="none" stroke="#1bc6a6" stroke-width="2" d="M353.01,-489.61C362.53,-485.79 371.8,-480.69 379.29,-473.9 427.58,-430.1 450.68,-353.92 460.08,-312.93" style=""/>
<polygon fill="#1bc6a6" stroke="#1bc6a6" stroke-width="2" points="463.52,-313.58 462.24,-303.07 456.68,-312.09 463.52,-313.58" style=""/>
</g>
<!-- NFTMarketplace.updateListingPrice -->
<g id="node2" class="node" pointer-events="visible" data-name="NFTMarketplace.updateListingPrice">

<ellipse fill="#ff9797" stroke="brown" stroke-width="3" cx="99.98" cy="-500.9" rx="83.96" ry="18" style=""/>
<text text-anchor="middle" x="99.98" y="-496.7" font-family="Times,serif" font-size="14.00" style="">updateListingPrice</text>
</g>
<!-- NFTMarketplace.getListingPrice -->
<g id="node3" class="node" pointer-events="visible" data-name="NFTMarketplace.getListingPrice">

<ellipse fill="#ff9797" stroke="#ff9797" stroke-width="3" cx="99.98" cy="-446.9" rx="70.08" ry="18" style=""/>
<text text-anchor="middle" x="99.98" y="-442.7" font-family="Times,serif" font-size="14.00" style="">getListingPrice</text>
</g>
<!-- NFTMarketplace.createToken -->
<g id="node4" class="node" pointer-events="visible" data-name="NFTMarketplace.createToken">

<ellipse fill="#ff9797" stroke="brown" stroke-width="3" cx="99.98" cy="-392.9" rx="58.5" ry="18" style=""/>
<text text-anchor="middle" x="99.98" y="-388.7" font-family="Times,serif" font-size="14.00" style="">createToken</text>
</g>
<!-- NFTMarketplace.createMarketItem -->
<g id="node5" class="node" pointer-events="visible" data-name="NFTMarketplace.createMarketItem">

<ellipse fill="#edad56" stroke="#edad56" stroke-width="3" cx="299.63" cy="-338.9" rx="79.83" ry="18" style=""/>
<text text-anchor="middle" x="299.63" y="-334.7" font-family="Times,serif" font-size="14.00" style="">createMarketItem</text>
</g>
<!-- NFTMarketplace.createToken&#45;&gt;NFTMarketplace.createMarketItem -->
<g id="edge6" class="edge" data-name="NFTMarketplace.createToken-&gt;NFTMarketplace.createMarketItem">

<path fill="none" stroke="#1bc6a6" stroke-width="2" d="M144.36,-381.05C171.82,-373.55 207.73,-363.74 237.99,-355.47" style=""/>
<polygon fill="#1bc6a6" stroke="#1bc6a6" stroke-width="2" points="239.29,-358.74 248.02,-352.73 237.45,-351.99 239.29,-358.74" style=""/>
</g>
<!-- NFTMarketplace._mint -->
<g id="node12" class="node" pointer-events="visible" data-name="NFTMarketplace._mint">

<ellipse fill="#edad56" stroke="#edad56" stroke-width="3" cx="299.63" cy="-392.9" rx="33.64" ry="18" style=""/>
<text text-anchor="middle" x="299.63" y="-388.7" font-family="Times,serif" font-size="14.00" style="">_mint</text>
</g>
<!-- NFTMarketplace.createToken&#45;&gt;NFTMarketplace._mint -->
<g id="edge4" class="edge" data-name="NFTMarketplace.createToken-&gt;NFTMarketplace._mint">

<path fill="none" stroke="#1bc6a6" stroke-width="2" d="M158.95,-392.9C189.99,-392.9 227.56,-392.9 255.92,-392.9" style=""/>
<polygon fill="#1bc6a6" stroke="#1bc6a6" stroke-width="2" points="255.92,-396.4 265.92,-392.9 255.92,-389.4 255.92,-396.4" style=""/>
</g>
<!-- NFTMarketplace._setTokenURI -->
<g id="node13" class="node" pointer-events="visible" data-name="NFTMarketplace._setTokenURI">

<ellipse fill="#edad56" stroke="#edad56" stroke-width="3" cx="299.63" cy="-446.9" rx="67.79" ry="18" style=""/>
<text text-anchor="middle" x="299.63" y="-442.7" font-family="Times,serif" font-size="14.00" style="">_setTokenURI</text>
</g>
<!-- NFTMarketplace.createToken&#45;&gt;NFTMarketplace._setTokenURI -->
<g id="edge5" class="edge" data-name="NFTMarketplace.createToken-&gt;NFTMarketplace._setTokenURI">

<path fill="none" stroke="#1bc6a6" stroke-width="2" d="M144.36,-404.75C172.96,-412.57 210.74,-422.89 241.75,-431.36" style=""/>
<polygon fill="#1bc6a6" stroke="#1bc6a6" stroke-width="2" points="240.99,-434.78 251.56,-434.04 242.83,-428.03 240.99,-434.78" style=""/>
</g>
<!-- Counters.Counter.increment -->
<g id="node15" class="node" pointer-events="visible" data-name="Counters.Counter.increment">

<ellipse fill="#edad56" stroke="#edad56" stroke-width="3" cx="466.54" cy="-91.9" rx="49.79" ry="18" style=""/>
<text text-anchor="middle" x="466.54" y="-87.7" font-family="Times,serif" font-size="14.00" style="">increment</text>
</g>
<!-- NFTMarketplace.createToken&#45;&gt;Counters.Counter.increment -->
<g id="edge2" class="edge" data-name="NFTMarketplace.createToken-&gt;Counters.Counter.increment">

<path fill="none" stroke="white" stroke-width="2" d="M153.16,-384.88C164.66,-380.87 175.82,-374.87 183.96,-365.9 233.56,-311.31 169,-257.21 219.96,-203.9 270.65,-150.89 319.73,-203.71 379.29,-160.9 397.51,-147.81 390.25,-133.5 407.29,-118.9 411.52,-115.27 416.32,-112.03 421.31,-109.17" style=""/>
<polygon fill="white" stroke="white" stroke-width="2" points="423.16,-112.15 430.4,-104.41 419.92,-105.95 423.16,-112.15" style=""/>
</g>
<!-- Counters.Counter.current -->
<g id="node16" class="node" pointer-events="visible" data-name="Counters.Counter.current">

<ellipse fill="#edad56" stroke="#edad56" stroke-width="3" cx="466.54" cy="-37.9" rx="38.26" ry="18" style=""/>
<text text-anchor="middle" x="466.54" y="-33.7" font-family="Times,serif" font-size="14.00" style="">current</text>
</g>
<!-- NFTMarketplace.createToken&#45;&gt;Counters.Counter.current -->
<g id="edge3" class="edge" data-name="NFTMarketplace.createToken-&gt;Counters.Counter.current">

<path fill="none" stroke="white" stroke-width="2" d="M153.45,-385.14C164.93,-381.12 176.02,-375.05 183.96,-365.9 244.61,-296.05 155.36,-227.1 219.96,-160.9 270.41,-109.21 323.05,-174.22 379.29,-128.9 403.47,-109.42 385.58,-87.09 407.29,-64.9 412.21,-59.87 418.25,-55.68 424.56,-52.22" style=""/>
<polygon fill="white" stroke="white" stroke-width="2" points="426.44,-55.19 433.89,-47.66 423.37,-48.9 426.44,-55.19" style=""/>
</g>
<!-- NFTMarketplace.createMarketItem&#45;&gt;NFTMarketplace.payable -->
<g id="edge7" class="edge" data-name="NFTMarketplace.createMarketItem-&gt;NFTMarketplace.payable">

<path fill="none" stroke="#1bc6a6" stroke-width="2" d="M333.6,-322.58C357.88,-313.25 391.24,-302.11 418.34,-294.19" style=""/>
<polygon fill="#1bc6a6" stroke="#1bc6a6" stroke-width="2" points="419.36,-297.54 428.01,-291.42 417.43,-290.81 419.36,-297.54" style=""/>
</g>
<!-- NFTMarketplace.createMarketItem&#45;&gt;NFTMarketplace.payable -->
<g id="edge8" class="edge" data-name="NFTMarketplace.createMarketItem-&gt;NFTMarketplace.payable">

<path fill="none" stroke="#1bc6a6" stroke-width="2" d="M358.31,-326.49C382.2,-319.21 409.16,-310.12 430.06,-302.18" style=""/>
<polygon fill="#1bc6a6" stroke="#1bc6a6" stroke-width="2" points="431.45,-305.39 439.51,-298.51 428.92,-298.87 431.45,-305.39" style=""/>
</g>
<!-- NFTMarketplace._transfer -->
<g id="node14" class="node" pointer-events="visible" data-name="NFTMarketplace._transfer">

<ellipse fill="#edad56" stroke="#edad56" stroke-width="3" cx="466.54" cy="-230.9" rx="45.21" ry="18" style=""/>
<text text-anchor="middle" x="466.54" y="-226.7" font-family="Times,serif" font-size="14.00" style="">_transfer</text>
</g>
<!-- NFTMarketplace.createMarketItem&#45;&gt;NFTMarketplace._transfer -->
<g id="edge9" class="edge" data-name="NFTMarketplace.createMarketItem-&gt;NFTMarketplace._transfer">

<path fill="none" stroke="#1bc6a6" stroke-width="2" d="M356,-325.96C364.4,-322.34 372.51,-317.75 379.29,-311.9 399.77,-294.25 387.76,-276.59 407.29,-257.9 411.62,-253.75 416.71,-250.16 422.04,-247.06" style=""/>
<polygon fill="#1bc6a6" stroke="#1bc6a6" stroke-width="2" points="423.9,-250.04 431.15,-242.32 420.67,-243.83 423.9,-250.04" style=""/>
</g>
<!-- NFTMarketplace.resellToken -->
<g id="node6" class="node" pointer-events="visible" data-name="NFTMarketplace.resellToken">

<ellipse fill="#ff9797" stroke="brown" stroke-width="3" cx="299.63" cy="-230.9" rx="56.74" ry="18" style=""/>
<text text-anchor="middle" x="299.63" y="-226.7" font-family="Times,serif" font-size="14.00" style="">resellToken</text>
</g>
<!-- NFTMarketplace.resellToken&#45;&gt;NFTMarketplace.payable -->
<g id="edge10" class="edge" data-name="NFTMarketplace.resellToken-&gt;NFTMarketplace.payable">

<path fill="none" stroke="#1bc6a6" stroke-width="2" d="M348.33,-240.33C374.41,-247.98 406.18,-258.55 430.06,-267.62" style=""/>
<polygon fill="#1bc6a6" stroke="#1bc6a6" stroke-width="2" points="428.85,-270.91 439.44,-271.27 431.39,-264.38 428.85,-270.91" style=""/>
</g>
<!-- NFTMarketplace.resellToken&#45;&gt;NFTMarketplace.payable -->
<g id="edge11" class="edge" data-name="NFTMarketplace.resellToken-&gt;NFTMarketplace.payable">

<path fill="none" stroke="#1bc6a6" stroke-width="2" d="M330.49,-246.02C354.99,-255.58 390.1,-267.36 418.39,-275.63" style=""/>
<polygon fill="#1bc6a6" stroke="#1bc6a6" stroke-width="2" points="417.51,-279.02 428.08,-278.4 419.43,-272.28 417.51,-279.02" style=""/>
</g>
<!-- NFTMarketplace.resellToken&#45;&gt;NFTMarketplace._transfer -->
<g id="edge13" class="edge" data-name="NFTMarketplace.resellToken-&gt;NFTMarketplace._transfer">

<path fill="none" stroke="#1bc6a6" stroke-width="2" d="M356.46,-230.9C374.03,-230.9 393.42,-230.9 410.91,-230.9" style=""/>
<polygon fill="#1bc6a6" stroke="#1bc6a6" stroke-width="2" points="410.96,-234.4 420.96,-230.9 410.96,-227.4 410.96,-234.4" style=""/>
</g>
<!-- Counters.Counter.decrement -->
<g id="node17" class="node" pointer-events="visible" data-name="Counters.Counter.decrement">

<ellipse fill="#edad56" stroke="#edad56" stroke-width="3" cx="466.54" cy="-145.9" rx="51.5" ry="18" style=""/>
<text text-anchor="middle" x="466.54" y="-141.7" font-family="Times,serif" font-size="14.00" style="">decrement</text>
</g>
<!-- NFTMarketplace.resellToken&#45;&gt;Counters.Counter.decrement -->
<g id="edge12" class="edge" data-name="NFTMarketplace.resellToken-&gt;Counters.Counter.decrement">

<path fill="none" stroke="white" stroke-width="2" d="M337.61,-217.31C350.96,-212.03 366.01,-205.63 379.29,-198.9 397.81,-189.52 417.6,-177.51 433.55,-167.3" style=""/>
<polygon fill="white" stroke="white" stroke-width="2" points="435.49,-170.21 441.98,-161.84 431.69,-164.34 435.49,-170.21" style=""/>
</g>
<!-- NFTMarketplace.createMarketSale -->
<g id="node7" class="node" pointer-events="visible" data-name="NFTMarketplace.createMarketSale">

<ellipse fill="#ff9797" stroke="brown" stroke-width="3" cx="299.63" cy="-284.9" rx="78.69" ry="18" style=""/>
<text text-anchor="middle" x="299.63" y="-280.7" font-family="Times,serif" font-size="14.00" style="">createMarketSale</text>
</g>
<!-- NFTMarketplace.createMarketSale&#45;&gt;NFTMarketplace.payable -->
<g id="edge14" class="edge" data-name="NFTMarketplace.createMarketSale-&gt;NFTMarketplace.payable">

<path fill="none" stroke="#1bc6a6" stroke-width="2" d="M332.42,-268.53C361.1,-263.45 403.12,-263.36 432.25,-268.27" style=""/>
<polygon fill="#1bc6a6" stroke="#1bc6a6" stroke-width="2" points="431.85,-271.76 442.35,-270.3 433.24,-264.9 431.85,-271.76" style=""/>
</g>
<!-- NFTMarketplace.createMarketSale&#45;&gt;NFTMarketplace.payable -->
<g id="edge15" class="edge" data-name="NFTMarketplace.createMarketSale-&gt;NFTMarketplace.payable">

<path fill="none" stroke="#1bc6a6" stroke-width="2" d="M372.96,-278.2C387.86,-278.06 403.2,-278.22 417.01,-278.69" style=""/>
<polygon fill="#1bc6a6" stroke="#1bc6a6" stroke-width="2" points="417.1,-282.19 427.23,-279.1 417.38,-275.2 417.1,-282.19" style=""/>
</g>
<!-- NFTMarketplace.createMarketSale&#45;&gt;NFTMarketplace.payable -->
<g id="edge18" class="edge" data-name="NFTMarketplace.createMarketSale-&gt;NFTMarketplace.payable">

<path fill="none" stroke="#1bc6a6" stroke-width="2" d="M372.96,-291.6C387.86,-291.74 403.2,-291.58 417.01,-291.11" style=""/>
<polygon fill="#1bc6a6" stroke="#1bc6a6" stroke-width="2" points="417.38,-294.6 427.23,-290.7 417.1,-287.61 417.38,-294.6" style=""/>
</g>
<!-- NFTMarketplace.createMarketSale&#45;&gt;NFTMarketplace.payable -->
<g id="edge19" class="edge" data-name="NFTMarketplace.createMarketSale-&gt;NFTMarketplace.payable">

<path fill="none" stroke="#1bc6a6" stroke-width="2" d="M332.42,-301.27C361.1,-306.35 403.12,-306.44 432.25,-301.53" style=""/>
<polygon fill="#1bc6a6" stroke="#1bc6a6" stroke-width="2" points="433.24,-304.9 442.35,-299.5 431.85,-298.04 433.24,-304.9" style=""/>
</g>
<!-- NFTMarketplace.createMarketSale&#45;&gt;NFTMarketplace._transfer -->
<g id="edge17" class="edge" data-name="NFTMarketplace.createMarketSale-&gt;NFTMarketplace._transfer">

<path fill="none" stroke="#1bc6a6" stroke-width="2" d="M345.69,-270.14C369.22,-262.44 397.91,-253.05 421.32,-245.38" style=""/>
<polygon fill="#1bc6a6" stroke="#1bc6a6" stroke-width="2" points="422.58,-248.65 430.99,-242.21 420.4,-242 422.58,-248.65" style=""/>
</g>
<!-- NFTMarketplace.createMarketSale&#45;&gt;Counters.Counter.increment -->
<g id="edge16" class="edge" data-name="NFTMarketplace.createMarketSale-&gt;Counters.Counter.increment">

<path fill="none" stroke="white" stroke-width="2" d="M358.71,-272.92C366.47,-269.2 373.68,-264.31 379.29,-257.9 420.82,-210.5 368.27,-168.38 407.29,-118.9 410.53,-114.79 414.54,-111.29 418.92,-108.29" style=""/>
<polygon fill="white" stroke="white" stroke-width="2" points="420.85,-111.22 427.72,-103.16 417.32,-105.18 420.85,-111.22" style=""/>
</g>
<!-- NFTMarketplace.fetchMarketItems -->
<g id="node8" class="node" pointer-events="visible" data-name="NFTMarketplace.fetchMarketItems">

<ellipse fill="#ff9797" stroke="#ff9797" stroke-width="3" cx="99.98" cy="-338.9" rx="79.85" ry="18" style=""/>
<text text-anchor="middle" x="99.98" y="-334.7" font-family="Times,serif" font-size="14.00" style="">fetchMarketItems</text>
</g>
<!-- NFTMarketplace.fetchMarketItems&#45;&gt;Counters.Counter.current -->
<g id="edge20" class="edge" data-name="NFTMarketplace.fetchMarketItems-&gt;Counters.Counter.current">

<path fill="none" stroke="white" stroke-width="2" d="M127.97,-322C146.37,-316.33 169.86,-309.74 183.96,-293.9 237.92,-233.29 167.68,-176.96 219.96,-114.9 246.12,-83.85 354.19,-50.16 417.92,-38.45" style=""/>
<polygon fill="white" stroke="white" stroke-width="2" points="418.87,-41.83 428.13,-36.7 417.68,-34.93 418.87,-41.83" style=""/>
</g>
<!-- NFTMarketplace.fetchMarketItems&#45;&gt;Counters.Counter.current -->
<g id="edge21" class="edge" data-name="NFTMarketplace.fetchMarketItems-&gt;Counters.Counter.current">

<path fill="none" stroke="white" stroke-width="2" d="M162.21,-327.4C170.41,-323.61 178.02,-318.58 183.96,-311.9 237.92,-251.29 167.68,-194.96 219.96,-132.9 246.75,-101.11 359.43,-66.54 422.43,-49.19" style=""/>
<polygon fill="white" stroke="white" stroke-width="2" points="423.74,-52.46 432.47,-46.45 421.9,-45.7 423.74,-52.46" style=""/>
</g>
<!-- NFTMarketplace.fetchMarketItems&#45;&gt;Counters.Counter.current -->
<g id="edge22" class="edge" data-name="NFTMarketplace.fetchMarketItems-&gt;Counters.Counter.current">

<path fill="none" stroke="white" stroke-width="2" d="M178.44,-335.27C180.4,-333.61 182.25,-331.82 183.96,-329.9 237.92,-269.29 167.68,-212.96 219.96,-150.9 248.49,-117.04 374.46,-80.03 434.07,-56.22" style=""/>
<polygon fill="white" stroke="white" stroke-width="2" points="435.48,-59.43 443.38,-52.37 432.8,-52.96 435.48,-59.43" style=""/>
</g>
<!-- NFTMarketplace.fetchMyNFTs -->
<g id="node9" class="node" pointer-events="visible" data-name="NFTMarketplace.fetchMyNFTs">

<ellipse fill="#ff9797" stroke="#ff9797" stroke-width="3" cx="99.98" cy="-284.9" rx="65.51" ry="18" style=""/>
<text text-anchor="middle" x="99.98" y="-280.7" font-family="Times,serif" font-size="14.00" style="">fetchMyNFTs</text>
</g>
<!-- NFTMarketplace.fetchMyNFTs&#45;&gt;Counters.Counter.current -->
<g id="edge23" class="edge" data-name="NFTMarketplace.fetchMyNFTs-&gt;Counters.Counter.current">

<path fill="none" stroke="white" stroke-width="2" d="M156.85,-275.84C167.09,-271.85 176.79,-266.12 183.96,-257.9 243.07,-190.19 153.5,-119.41 219.96,-58.9 247.99,-33.39 354.81,-33.13 417.96,-35.39" style=""/>
<polygon fill="white" stroke="white" stroke-width="2" points="417.95,-38.89 428.08,-35.78 418.23,-31.89 417.95,-38.89" style=""/>
</g>
<!-- NFTMarketplace.fetchItemsListed -->
<g id="node10" class="node" pointer-events="visible" data-name="NFTMarketplace.fetchItemsListed">

<ellipse fill="#ff9797" stroke="#ff9797" stroke-width="3" cx="99.98" cy="-230.9" rx="75.86" ry="18" style=""/>
<text text-anchor="middle" x="99.98" y="-226.7" font-family="Times,serif" font-size="14.00" style="">fetchItemsListed</text>
</g>
<!-- NFTMarketplace.fetchItemsListed&#45;&gt;Counters.Counter.current -->
<g id="edge24" class="edge" data-name="NFTMarketplace.fetchItemsListed-&gt;Counters.Counter.current">

<path fill="none" stroke="white" stroke-width="2" d="M104.79,-212.82C114.87,-170.16 146.65,-63.63 219.96,-20.9 284.87,16.92 376.43,-5.21 427.43,-22.8" style=""/>
<polygon fill="white" stroke="white" stroke-width="2" points="426.48,-26.17 437.07,-26.23 428.83,-19.58 426.48,-26.17" style=""/>
</g>
<!-- key -->
<g id="node18" class="node" pointer-events="visible" data-name="key">

<polygon fill="#edad56" stroke="none" stroke-width="3" points="164.98,-655.9 34.98,-655.9 34.98,-567.9 164.98,-567.9 164.98,-655.9" style=""/>
<text text-anchor="start" x="84.62" y="-637.3" font-family="Times,serif" font-size="14.00" style="">Internal Call</text>
<text text-anchor="start" x="80.73" y="-617.3" font-family="Times,serif" font-size="14.00" style="">External Call</text>
<text text-anchor="start" x="58.19" y="-597.3" font-family="Times,serif" font-size="14.00" style="">Defined Contract</text>
<text text-anchor="start" x="44.58" y="-577.3" font-family="Times,serif" font-size="14.00" style="">Undefined Contract</text>
</g>
<!-- key2 -->
<g id="node19" class="node" pointer-events="visible" data-name="key2">

<polygon fill="#edad56" stroke="none" stroke-width="3" points="326.63,-655.9 272.63,-655.9 272.63,-567.9 326.63,-567.9 326.63,-655.9" style=""/>
<text text-anchor="start" x="289.63" y="-637.3" font-family="Times,serif" font-size="14.00" style="">   </text>
<text text-anchor="start" x="289.63" y="-617.3" font-family="Times,serif" font-size="14.00" style="">   </text>
<polygon fill="#445773" stroke="none" points="287.63,-591.9 287.63,-611.9 312.63,-611.9 312.63,-591.9 287.63,-591.9" style=""/>
<text text-anchor="start" x="289.63" y="-597.3" font-family="Times,serif" font-size="14.00" style="">   </text>
<polygon fill="none" stroke="#e8726d" points="289.63,-573.9 289.63,-589.9 310.63,-589.9 310.63,-573.9 289.63,-573.9" style=""/>
</g>
<!-- key&#45;&gt;key2 -->
<g id="edge25" class="edge" data-name="key-&gt;key2">

<path fill="none" stroke="#1bc6a6" stroke-width="2" d="M157.98,-641.9C211.58,-641.9 227.5,-641.9 276.39,-641.9" style=""/>
<polygon fill="#1bc6a6" stroke="#1bc6a6" stroke-width="2" points="276.63,-645.4 286.63,-641.9 276.63,-638.4 276.63,-645.4" style=""/>
</g>
<!-- key&#45;&gt;key2 -->
<g id="edge26" class="edge" data-name="key-&gt;key2">

<path fill="none" stroke="white" stroke-width="2" d="M157.98,-621.9C211.58,-621.9 227.5,-621.9 276.39,-621.9" style=""/>
<polygon fill="white" stroke="white" stroke-width="2" points="276.63,-625.4 286.63,-621.9 276.63,-618.4 276.63,-625.4" style=""/>
</g>
</g>
</svg>